<svg width="150" height="51" viewBox="0 0 150 51" fill="none" xmlns="http://www.w3.org/2000/svg">
<path d="M63.8327 26.0182C63.8327 33.0605 58.3235 38.2499 51.5625 38.2499C44.8014 38.2499 39.2922 33.0605 39.2922 26.0182C39.2922 18.9263 44.8014 13.7866 51.5625 13.7866C58.3235 13.7866 63.8327 18.9263 63.8327 26.0182ZM58.4614 26.0182C58.4614 21.6175 55.2683 18.6065 51.5625 18.6065C47.8566 18.6065 44.6636 21.6175 44.6636 26.0182C44.6636 30.3749 47.8566 33.43 51.5625 33.43C55.2683 33.43 58.4614 30.3693 58.4614 26.0182Z" fill="white"/>
<path d="M90.3033 26.0182C90.3033 33.0605 84.7941 38.2499 78.0331 38.2499C71.272 38.2499 65.7628 33.0605 65.7628 26.0182C65.7628 18.9318 71.272 13.7866 78.0331 13.7866C84.7941 13.7866 90.3033 18.9263 90.3033 26.0182ZM84.932 26.0182C84.932 21.6175 81.7389 18.6065 78.0331 18.6065C74.3272 18.6065 71.1341 21.6175 71.1341 26.0182C71.1341 30.3749 74.3272 33.43 78.0331 33.43C81.7389 33.43 84.932 30.3693 84.932 26.0182Z" fill="white"/>
<path d="M115.671 14.5256V36.4852C115.671 45.5182 110.344 49.2076 104.046 49.2076C98.1176 49.2076 94.5496 45.2425 93.204 41.9999L97.8805 40.0532C98.7132 42.044 100.754 44.3932 104.04 44.3932C108.072 44.3932 110.57 41.9061 110.57 37.2241V35.4649H110.382C109.18 36.9484 106.864 38.2443 103.941 38.2443C97.8254 38.2443 92.2224 32.9171 92.2224 26.0624C92.2224 19.1579 97.8254 13.7866 103.941 13.7866C106.858 13.7866 109.175 15.0826 110.382 16.5219H110.57V14.5311H115.671V14.5256ZM110.95 26.0624C110.95 21.7554 108.077 18.6065 104.421 18.6065C100.715 18.6065 97.6103 21.7554 97.6103 26.0624C97.6103 30.3252 100.715 33.43 104.421 33.43C108.077 33.43 110.95 30.3252 110.95 26.0624Z" fill="white"/>
<path d="M124.081 1.6543V37.4999H118.842V1.6543H124.081Z" fill="white"/>
<path d="M144.496 30.0441L148.665 32.8235C147.32 34.8143 144.077 38.2445 138.474 38.2445C131.526 38.2445 126.336 32.8732 126.336 26.0129C126.336 18.739 131.57 13.7812 137.873 13.7812C144.221 13.7812 147.325 18.8327 148.34 21.5625L148.897 22.9522L132.546 29.7243C133.798 32.1783 135.745 33.4301 138.474 33.4301C141.21 33.4301 143.107 32.0846 144.496 30.0441ZM131.664 25.6434L142.594 21.1048C141.993 19.5772 140.184 18.5129 138.055 18.5129C135.325 18.5129 131.526 20.9228 131.664 25.6434Z" fill="white"/>
<path d="M19.4614 22.8365V17.6471H36.9486C37.1195 18.5516 37.2077 19.6214 37.2077 20.7795C37.2077 24.6729 36.1434 29.4872 32.7133 32.9174C29.3769 36.3916 25.114 38.2446 19.4669 38.2446C9.00002 38.2446 0.198547 29.7188 0.198547 19.2519C0.198547 8.78501 9.00002 0.259277 19.4669 0.259277C25.2574 0.259277 29.3824 2.53134 32.4816 5.49273L28.8199 9.1545C26.5974 7.06994 23.5864 5.44862 19.4614 5.44862C11.818 5.44862 5.84009 11.6085 5.84009 19.2519C5.84009 26.8953 11.818 33.0552 19.4614 33.0552C24.4191 33.0552 27.2427 31.0644 29.0515 29.2556C30.5184 27.7887 31.4835 25.6931 31.864 22.831L19.4614 22.8365Z" fill="white"/>
</svg>
