<svg width="200" height="189" viewBox="0 0 200 189" fill="none" xmlns="http://www.w3.org/2000/svg">
<path d="M100.039 0C102.797 4.25589 105.455 8.58276 108.191 12.8558C113.194 20.7508 118.404 28.5529 122.498 36.9741C125.156 42.4586 127.227 48.3003 127.931 54.3795C128.465 58.4959 128.298 62.6735 127.689 66.7727L128.083 66.6063C127.028 67.3576 126.404 68.5226 125.638 69.5333C117.702 80.3358 109.807 91.1725 101.853 101.963C101.273 98.9281 100.414 95.935 99.0505 93.1524C96.7696 88.3605 93.5245 84.1169 90.2182 79.9981C86.4003 75.2919 82.4601 70.686 78.7476 65.8941C85.8399 43.927 92.9322 21.9623 100.039 0Z" fill="white"/>
<path d="M128.083 66.6064C134.769 63.7235 142.109 62.4631 149.37 62.6368C158.418 62.7568 167.292 64.7685 176.095 66.6798C184.019 68.5349 192.017 70.0498 200 71.6136C180.93 85.4459 161.807 99.2121 142.735 113.044C137.285 111.153 131.972 108.906 126.593 106.833C118.707 103.789 110.296 101.111 101.74 102.119L101.853 101.963C109.806 91.1726 117.701 80.3359 125.638 69.5334C126.404 68.5227 127.028 67.3577 128.083 66.6064Z" fill="white"/>
<path d="M0 69.6412C17.0823 69.6339 34.1646 69.6975 51.2469 69.6951C58.3735 69.6779 65.5001 69.7832 72.6292 69.7122C75.2404 72.9598 77.8248 76.2318 80.5071 79.4256C83.6152 83.1945 86.7869 86.9266 89.5304 90.977C91.9752 94.6284 94.0432 98.6567 94.7334 103.042C95.1714 105.57 95.0393 108.147 95.1959 110.7C95.2277 111.251 94.8508 111.679 94.5523 112.097C83.8697 126.559 73.3217 141.118 62.7151 155.633C55.1626 165.956 47.6371 176.298 40.0994 186.631C39.7665 187.113 39.4484 187.622 38.9809 187.989C39.0886 187.115 39.4533 186.307 39.7078 185.473C47.3924 161.996 55.0819 138.524 62.7567 115.044C46.4232 103.238 30.0923 91.4297 13.7613 79.6189C9.1799 76.2857 4.55447 73.0112 0 69.6412Z" fill="white"/>
<path d="M95.196 110.7C98.2111 109.973 101.241 109.092 104.366 109.072C109.846 108.798 115.22 110.279 120.35 112.058C127.488 114.601 134.422 117.697 141.602 120.132C149.049 142.995 156.565 165.838 164.024 188.698C160.099 185.987 156.301 183.084 152.419 180.307C135.401 167.877 118.34 155.501 101.339 143.049C80.4509 158.278 59.5605 173.503 38.6677 188.725C38.7314 188.424 38.7974 188.123 38.8586 187.827L38.981 187.989C39.4484 187.622 39.7666 187.113 40.0994 186.63C47.6372 176.298 55.1627 165.955 62.7151 155.633C73.3218 141.118 83.8698 126.559 94.5523 112.097C94.8509 111.679 95.2278 111.251 95.196 110.7Z" fill="white"/>
</svg>
