<svg width="80" height="80" viewBox="0 0 80 80" fill="none" xmlns="http://www.w3.org/2000/svg">
<path d="M40 80C62.0914 80 80 62.0914 80 40C80 17.9086 62.0914 0 40 0C17.9086 0 0 17.9086 0 40C0 62.0914 17.9086 80 40 80Z" fill="#2C3E50"/>
<path d="M64.8001 28C67.0092 28 68.8001 26.2091 68.8001 24C68.8001 21.7909 67.0092 20 64.8001 20C62.5909 20 60.8 21.7909 60.8 24C60.8 26.2091 62.5909 28 64.8001 28Z" fill="#F0C419"/>
<path d="M63.2 21.9999C65.24 21.6399 66.44 20.4391 66.8 18.3999C67.16 20.4391 68.36 21.6399 70.4 21.9999C68.36 22.3599 67.16 23.5599 66.8 25.5999C66.44 23.5599 65.24 22.3607 63.2 21.9999Z" fill="white"/>
<path opacity="0.6" d="M49.2 12.7999C49.8627 12.7999 50.4 12.2626 50.4 11.5999C50.4 10.9372 49.8627 10.3999 49.2 10.3999C48.5373 10.3999 48 10.9372 48 11.5999C48 12.2626 48.5373 12.7999 49.2 12.7999Z" fill="white"/>
<path opacity="0.2" d="M35.6 10.4C36.2628 10.4 36.8 9.86274 36.8 9.2C36.8 8.53726 36.2628 8 35.6 8C34.9373 8 34.4 8.53726 34.4 9.2C34.4 9.86274 34.9373 10.4 35.6 10.4Z" fill="white"/>
<path opacity="0.6" d="M13.2 29.6C13.8627 29.6 14.4 29.0627 14.4 28.4C14.4 27.7372 13.8627 27.2 13.2 27.2C12.5373 27.2 12 27.7372 12 28.4C12 29.0627 12.5373 29.6 13.2 29.6Z" fill="white"/>
<path opacity="0.3" d="M28.4 68.0001C29.0627 68.0001 29.6 67.4628 29.6 66.8001C29.6 66.1374 29.0627 65.6001 28.4 65.6001C27.7372 65.6001 27.2 66.1374 27.2 66.8001C27.2 67.4628 27.7372 68.0001 28.4 68.0001Z" fill="white"/>
<path opacity="0.4" d="M54.8001 66.4C55.4628 66.4 56.0001 65.8627 56.0001 65.2C56.0001 64.5373 55.4628 64 54.8001 64C54.1374 64 53.6001 64.5373 53.6001 65.2C53.6001 65.8627 54.1374 66.4 54.8001 66.4Z" fill="white"/>
<path opacity="0.6" d="M68.4 50.4C69.0627 50.4 69.6 49.8627 69.6 49.2C69.6 48.5373 69.0627 48 68.4 48C67.7372 48 67.2 48.5373 67.2 49.2C67.2 49.8627 67.7372 50.4 68.4 50.4Z" fill="white"/>
<path d="M40 60C51.0457 60 60 51.0457 60 40C60 28.9543 51.0457 20 40 20C28.9543 20 20 28.9543 20 40C20 51.0457 28.9543 60 40 60Z" fill="#3B97D3"/>
<path opacity="0.88" d="M59.1976 45.6063C54.9792 52.7039 43.3144 57.9359 38.2968 59.9223C38.8584 59.9703 39.4256 59.9999 40 59.9999C49.0984 59.9999 56.7728 53.9215 59.1976 45.6063ZM54.3528 36.7999C54.4024 30.4999 53.516 30.4343 47.9528 31.1999C45.228 31.5751 42.828 32.5751 39.1528 34.3999L31.1528 41.5999C31.1528 41.5999 29.9224 39.2783 27.9528 42.3999C26.628 44.4999 27.1528 46.3999 27.1528 46.3999C27.1528 46.3999 29.5528 43.7495 31.9528 43.1999C33.1424 42.9271 41.5776 38.4743 41.5528 43.9999C41.5304 49.0039 32.1168 55.7703 29.9688 57.2999C30.2832 57.4823 30.6024 57.6567 30.9272 57.8223C32.2664 57.6167 34.62 56.9319 38.352 55.2007C43.9032 52.6247 54.2968 43.8583 54.3528 36.7999Z" fill="white"/>
<path d="M59.1975 45.6064C59.7298 43.7851 60 41.8974 59.9999 40C59.9999 30.1632 52.8959 21.9912 43.5399 20.3184C43.2455 20.4464 42.6175 20.604 41.5527 20.8C34.5695 22.0824 28.0775 26.3 23.9527 32.8C23.0775 33.8 22.3527 36.8 22.3527 36.8C22.3527 36.8 22.1975 38.4 23.1527 38.4C24.1079 38.4 23.4335 35.856 24.7527 34.4C26.0279 32.9936 28.7487 28.4928 32.7527 26.4C35.3415 25.0112 43.6279 22.9984 47.9527 26.4C52.4223 29.932 41.0095 23.1656 35.1191 32.124C33.6399 34.3736 32.6575 30.6392 30.3527 32C27.7759 33.5208 28.7031 33.9248 25.5527 40.8C23.2447 45.8376 25.0639 50.6024 24.4895 52.6232C26.0194 54.4996 27.8759 56.084 29.9695 57.3C32.1175 55.7704 41.5303 49.004 41.5535 44C41.5783 38.4752 33.1431 42.9272 31.9535 43.2C29.5535 43.7496 27.1535 46.4 27.1535 46.4C27.1535 46.4 26.6287 44.5 27.9535 42.4C29.9231 39.2784 31.1535 41.6 31.1535 41.6C31.1535 41.6 35.4783 36.2248 39.1535 34.4C42.8287 32.5752 45.2287 31.5752 47.9535 31.2C53.5167 30.4344 54.4039 30.5 54.3535 36.8C54.2975 43.8584 43.9039 52.6248 38.3535 55.2C34.6207 56.932 32.2679 57.616 30.9287 57.8216C33.2255 58.993 35.7283 59.7063 38.2975 59.9216C43.3143 57.936 54.9791 52.704 59.1975 45.6064Z" fill="#3B97D3"/>
<path opacity="0.88" d="M25.5528 40.8C28.7032 33.9248 27.776 33.5208 30.3528 32C32.6584 30.6392 33.64 34.3736 35.1192 32.124C41.0096 23.1656 52.4224 29.932 47.9528 26.4C43.628 22.9984 35.3416 25.0112 32.7528 26.4C28.7488 28.4928 26.028 32.9936 24.7528 34.4C23.4336 35.856 24.108 38.4 23.1528 38.4L22.3528 36.8C22.3528 36.8 23.0776 33.8 23.9528 32.8C28.0776 26.3 34.5696 22.0824 41.5528 20.8C42.6176 20.6048 43.2456 20.4464 43.54 20.3184C42.3717 20.1082 41.1871 20.0017 40 20C28.9544 20 20 28.9544 20 40C19.9937 44.6 21.5801 49.0603 24.4896 52.6232C25.0648 50.6024 23.2448 45.8376 25.5528 40.8Z" fill="white"/>
</svg>
