<svg width="80" height="80" viewBox="0 0 80 80" fill="none" xmlns="http://www.w3.org/2000/svg">
<g clip-path="url(#clip0_12_382)">
<path d="M40 0C62.0904 0 80 17.9088 80 40C80 62.0912 62.0904 80 40 80C17.9088 80 0 62.0912 0 40C0 17.9088 17.9088 0 40 0Z" fill="#D7DCDD"/>
<path d="M58.3711 52.0272C58.3711 52.0272 53.3847 50.1288 51.4831 52.0272L48.6127 54.8912C47.8129 55.6894 47.3169 56.7419 47.2104 57.8669C47.1039 58.9918 47.3936 60.1187 48.0295 61.0528L41.5999 67.0216V44H38.3999V96.8H41.5999V69.2064L49.1455 62.2C51.0535 63.6312 53.7647 63.4984 55.5007 61.7656L58.3711 58.9016C60.2735 57.0032 58.3711 52.0272 58.3711 52.0272Z" fill="#25AE5F"/>
<path d="M24 26.4001H40L32 16.8L24 26.4001ZM48 16.8L40 26.4001H56L48 16.8Z" fill="#C03A2B"/>
<path d="M38.3999 45.6001H41.5999V48.8001H38.3999V45.6001ZM51.4831 52.0273L48.6127 54.8913C47.8129 55.6895 47.3169 56.742 47.2104 57.867C47.1039 58.9919 47.3936 60.1188 48.0295 61.0529L48.0151 61.0657L48.6903 61.7081L58.3711 52.0273C58.3711 52.0273 53.3839 50.1289 51.4831 52.0273Z" fill="#1F8B4D"/>
<path d="M56 16.8V30.4C56 39.2368 48.8368 46.4 40 46.4C31.1632 46.4 24 39.2368 24 30.4V16.8L31.9664 24.8L39.9808 16.8L47.9528 24.8L56 16.8Z" fill="#E64B3C"/>
<path d="M40 16.8184V46.4C48.8368 46.4 56 39.2368 56 30.4V16.8L47.9528 24.8L40 16.8184Z" fill="#EB675A"/>
</g>
<defs>
<clipPath id="clip0_12_382">
<rect width="80" height="80" fill="white"/>
</clipPath>
</defs>
</svg>
