<svg width="80" height="90" viewBox="0 0 80 90" fill="none" xmlns="http://www.w3.org/2000/svg">
<g clip-path="url(#clip0_12_345)">
<path d="M37.2946 15.2957C57.8914 15.2957 74.5892 31.9917 74.5892 52.5876C74.5892 73.1835 57.8914 89.8795 37.2946 89.8795C16.6978 89.8795 0 73.1835 0 52.5876C0 31.9917 16.6978 15.2957 37.2946 15.2957Z" fill="#334D5C"/>
<path d="M32.7781 23.6392C34.6351 24.3609 35.55 26.4371 34.822 28.2778C34.094 30.1186 31.998 31.0255 30.1411 30.3037C28.2842 29.5811 27.3692 27.5049 28.0972 25.6641C28.8261 23.8243 30.9212 22.9174 32.7781 23.6392ZM48.9295 29.8885C49.369 30.0612 49.7703 30.3187 50.1103 30.6465C50.4503 30.9742 50.7224 31.3657 50.9111 31.7986C51.0998 32.2315 51.2014 32.6974 51.2101 33.1696C51.2188 33.6417 51.1344 34.111 50.9617 34.5505C50.789 34.9901 50.5314 35.3913 50.2037 35.7313C49.8759 36.0713 49.4844 36.3435 49.0515 36.5322C48.6186 36.7209 48.1528 36.8225 47.6806 36.8311C47.2084 36.8398 46.7392 36.7554 46.2996 36.5827C45.4119 36.234 44.6991 35.5469 44.318 34.6726C43.9369 33.7983 43.9187 32.8084 44.2674 31.9207C44.6162 31.0329 45.3033 30.3201 46.1776 29.939C47.0519 29.5579 48.0418 29.5397 48.9295 29.8885ZM35.4745 39.8013C35.9153 39.9722 36.3181 40.2286 36.6595 40.5556C37.001 40.8827 37.2745 41.2739 37.4643 41.7069C37.6541 42.14 37.7566 42.6062 37.7657 43.0789C37.7748 43.5517 37.6905 44.0215 37.5175 44.4615C36.7895 46.3113 34.6935 47.2209 32.8366 46.4973C32.3957 46.3263 31.993 46.0698 31.6515 45.7427C31.31 45.4156 31.0364 45.0243 30.8465 44.5913C30.6566 44.1582 30.5541 43.6919 30.5449 43.2191C30.5356 42.7463 30.6199 42.2763 30.7927 41.8362C31.1458 40.9472 31.8365 40.2341 32.7138 39.8528C33.5911 39.4715 34.5836 39.453 35.4745 39.8013Z" fill="#243641"/>
<path d="M41.7886 82.6891C21.1918 82.6891 4.49398 65.9931 4.49398 45.3972C4.48756 39.8657 5.71646 34.4026 8.09096 29.4067C3.03164 35.7729 0 43.8234 0 52.5876C0 73.1835 16.6978 89.8795 37.2946 89.8795C52.1688 89.8795 65.0045 81.172 70.9923 68.578C64.1605 77.1714 53.6221 82.6891 41.7886 82.6891Z" fill="#2E4553"/>
<path d="M80 63.7057C80 54.3304 78.2006 47.6191 73.7642 39.4158C70.4934 33.4505 69.4338 26.8461 70.7065 20.3487L72.8168 9.37713C72.9184 8.88909 72.922 8.60147 72.922 7.88423C72.922 3.51968 69.4338 0 65.1097 0C60.8772 0 57.3962 3.51968 57.3962 7.88423C57.3962 8.44688 57.4312 8.92774 57.505 9.37713L59.6153 20.2427C60.7757 26.7401 59.8256 33.4514 56.5576 39.3115C52.4339 46.7661 50.3218 55.1815 50.3218 63.7057C50.3218 72.2236 52.4339 80.6426 56.5576 88.0999H56.6133C57.4205 89.1156 60.9428 89.8796 65.1627 89.8796C69.76 89.8796 73.5206 88.9718 73.854 87.8204C78.2213 79.698 80 73.0128 80 63.7057Z" fill="#D7DCDD"/>
<path d="M58.4109 88.0999H58.3552C54.2315 80.6426 52.1194 72.2236 52.1194 63.7057C52.1194 55.1815 54.2315 46.7661 58.3552 39.3115C61.6241 33.4514 62.5733 26.741 61.4129 20.2427L59.3025 9.37803C59.2288 8.92863 59.1938 8.44778 59.1938 7.88513C59.1938 3.83067 62.1994 0.510516 66.0174 0.0575229C65.7162 0.0205102 65.4131 0.00130255 65.1097 0C60.8772 0 57.3962 3.51968 57.3962 7.88423C57.3962 8.44688 57.4312 8.92774 57.5049 9.37713L59.6153 20.2427C60.7757 26.7401 59.8256 33.4514 56.5576 39.3115C52.4339 46.7661 50.3218 55.1815 50.3218 63.7057C50.3218 72.2236 52.4339 80.6426 56.5576 88.0999H56.6133C57.4214 89.1156 60.9428 89.8796 65.1627 89.8796C65.4701 89.8796 65.7721 89.8751 66.0705 89.867C62.2524 89.7681 59.1623 89.0419 58.4109 88.0999Z" fill="#DBDFE0"/>
<path d="M53.0289 34.1542H77.2964V28.7614H53.0289V34.1542ZM53.0289 19.7734V25.1662H77.2964V19.7734H53.0289Z" fill="#E74C3C"/>
<path d="M59.6153 20.2426C59.9065 21.8757 60.0647 23.5223 60.0872 25.1662H61.8847C61.8613 23.5149 61.7035 21.8683 61.4129 20.2426L61.3221 19.7734H59.5245L59.6153 20.2426ZM59.9137 28.7614C59.7104 30.592 59.3281 32.3982 58.7722 34.1542H60.5698C61.1248 32.398 61.5071 30.5918 61.7113 28.7614H59.9137Z" fill="#D74737"/>
</g>
<defs>
<clipPath id="clip0_12_345">
<rect width="80" height="89.8796" fill="white"/>
</clipPath>
</defs>
</svg>
