<svg width="80" height="80" viewBox="0 0 80 80" fill="none" xmlns="http://www.w3.org/2000/svg">
<path d="M80 68C80 74.6272 74.6272 80 68 80H12C5.3728 80 0 74.6272 0 68V12C0 5.3728 5.3728 0 12 0H68C74.6272 0 80 5.3728 80 12V68Z" fill="#3B97D3"/>
<path d="M72 12.0001C71.9999 13.061 71.5783 14.0785 70.828 14.8287C70.0777 15.5788 69.0602 16.0002 67.9992 16.0001C66.9382 16 65.9208 15.5784 65.1706 14.8281C64.4205 14.0778 63.9991 13.0602 63.9992 11.9993C63.9993 10.9383 64.4209 9.92082 65.1712 9.17067C65.9215 8.42053 66.939 7.99916 68 7.99927C69.061 7.99937 70.0785 8.42095 70.8286 9.17124C71.5787 9.92154 72.0001 10.9391 72 12.0001Z" fill="white" stroke="#2980BA" stroke-width="2" stroke-miterlimit="10"/>
<path opacity="0.5" d="M39.2 71.2C55.5476 71.2 68.8 57.9476 68.8 41.6C68.8 25.2524 55.5476 12 39.2 12C22.8523 12 9.59998 25.2524 9.59998 41.6C9.59998 57.9476 22.8523 71.2 39.2 71.2Z" fill="#324559"/>
<path d="M40 69.5999C56.3476 69.5999 69.6 56.3475 69.6 39.9999C69.6 23.6523 56.3476 10.3999 40 10.3999C23.6524 10.3999 10.4 23.6523 10.4 39.9999C10.4 56.3475 23.6524 69.5999 40 69.5999Z" fill="white"/>
<path d="M40 67.2C55.0221 67.2 67.2 55.0222 67.2 40C67.2 24.9779 55.0221 12.8 40 12.8C24.9778 12.8 12.8 24.9779 12.8 40C12.8 55.0222 24.9778 67.2 40 67.2Z" fill="#202D3C"/>
<path d="M40 57.5999C49.7202 57.5999 57.6 49.7201 57.6 39.9999C57.6 30.2797 49.7202 22.3999 40 22.3999C30.2798 22.3999 22.4 30.2797 22.4 39.9999C22.4 49.7201 30.2798 57.5999 40 57.5999Z" fill="#35495E"/>
<path d="M40 50.4001C45.7437 50.4001 50.4 45.7439 50.4 40.0001C50.4 34.2563 45.7437 29.6001 40 29.6001C34.2562 29.6001 29.6 34.2563 29.6 40.0001C29.6 45.7439 34.2562 50.4001 40 50.4001Z" fill="#202D3C"/>
<path d="M40 43.2C41.7673 43.2 43.2 41.7674 43.2 40C43.2 38.2327 41.7673 36.8 40 36.8C38.2327 36.8 36.8 38.2327 36.8 40C36.8 41.7674 38.2327 43.2 40 43.2Z" fill="#C03A2B"/>
<path d="M40 47.2001C39.0544 47.2001 38.1181 47.0138 37.2445 46.6519C36.3709 46.29 35.5771 45.7596 34.9085 45.091C34.2399 44.4223 33.7096 43.6285 33.3478 42.7548C32.986 41.8812 32.7999 40.9449 32.8 39.9993" stroke="#35495E" stroke-width="2" stroke-miterlimit="10"/>
<path opacity="0.15" d="M18.9 19.0985C30.4984 7.50006 49.3032 7.50006 60.9016 19.0985C72.5 30.6969 72.5 49.5017 60.9016 61.1001" fill="black"/>
</svg>
