<svg width="80" height="98" viewBox="0 0 80 98" fill="none" xmlns="http://www.w3.org/2000/svg">
<g clip-path="url(#clip0_12_507)">
<path d="M39.9698 71.1362C39.9698 71.1362 1.93745 71.1665 1.97843 71.1762C1.99501 72.0201 1.97843 75.0999 1.97843 75.0999L39.9688 97.588L77.9602 75.0999C77.9602 75.0999 77.926 71.9801 77.9524 71.2104C77.8626 71.0211 39.9698 71.1362 39.9698 71.1362Z" fill="#34495E"/>
<path d="M39.9698 25.3152C39.9698 25.3152 1.93745 25.3454 1.97843 25.3552C1.99501 26.199 1.97843 71.2016 1.97843 71.2016L39.9698 93.6887L77.9612 71.2016C77.9612 71.2016 77.9573 26.16 77.9826 25.3903C77.8958 25.1991 39.9698 25.3152 39.9698 25.3152Z" fill="#ECF0F1"/>
<path d="M1.97843 71.1762C1.99501 72.0201 1.97843 75.0998 1.97843 75.0998L39.9688 97.588V71.1362C39.9698 71.1362 1.93648 71.1674 1.97843 71.1762Z" fill="#2C3E50"/>
<path d="M1.97843 25.3552C1.99501 26.199 1.97843 71.2016 1.97843 71.2016L39.9698 93.6887V25.3152C39.9698 25.3152 1.93648 25.3454 1.97843 25.3552Z" fill="#BDC3C7"/>
<path d="M39.9697 23.3993C39.9697 23.3993 -0.0107898 23.4296 0.0301828 23.4393C0.0477425 24.2832 0.0301828 27.3629 0.0301828 27.3629L39.9687 50.8256L79.9073 27.3629C79.9073 27.3629 79.8751 24.2432 79.8995 23.4735C79.8117 23.2832 39.9697 23.3993 39.9697 23.3993Z" fill="#BDC3C7"/>
<path d="M45.8445 53.6224L52.6772 49.7222V62.3964L45.8445 66.2946V53.6224ZM55.6067 47.7721L62.4403 43.8719V56.5471L55.6067 60.4453V47.7721ZM0.0332031 27.3638L39.8605 50.7611H39.9688V23.4626H0.0332031V23.6743C0.0410074 24.4138 0.0361297 25.8947 0.0332031 26.7385V27.3638ZM65.3689 41.9228L72.2045 38.0235V50.6968L65.3689 54.596V41.9228ZM45.8445 70.2065L52.6772 66.3063V78.9805L45.8445 82.8807V70.2065ZM65.3689 58.5059L72.2045 54.6067V67.2809L65.3689 71.1801V58.5059Z" fill="#95A5A6"/>
<path d="M55.6135 71.188L62.4472 67.2888V84.2837L55.6135 88.3283V71.188Z" fill="#2C3E50"/>
<path d="M55.6135 64.3592L62.4472 60.46V64.3543L55.6135 68.2535V64.3592Z" fill="#C0392C"/>
<path d="M39.9698 0L0 23.4627L39.9698 46.9254L80 23.4627L39.9698 0Z" fill="#ECF0F1"/>
<path d="M39.9698 3.93042L5.84448 23.4627L39.9698 42.9949L74.0951 23.4627L39.9698 3.93042Z" fill="#D48A6D"/>
<path d="M34.1253 53.6526L27.3073 49.7524V62.4266L34.1253 66.3248V53.6526ZM24.3846 47.8023L17.5666 43.9021V56.5782L24.3846 60.4765V47.8023ZM14.6438 41.9529L7.82581 38.0527V50.726L14.6438 54.6262V41.9529ZM34.1253 70.226L27.3073 66.3277V79L34.1253 82.9002V70.226ZM24.3846 64.3767L17.5666 60.4784V73.1507L24.3846 77.0509V64.3767ZM14.6438 58.5273L7.82581 54.6271V67.3013L14.6438 71.2015V58.5273Z" fill="#7F8C8D"/>
<path d="M72.2045 43.5071L65.3689 47.7721V49.7222L72.2045 45.4572V43.5071ZM72.2045 60.0912L65.3689 64.3563V66.3064L72.2045 62.0404V60.0912ZM62.4403 49.3564L55.6067 53.6224V55.5716L62.4403 51.3055V49.3564ZM52.6772 55.2057L45.8445 59.4718V61.4209L52.6772 57.1568V55.2057ZM52.6772 71.7899L45.8445 76.0559V78.0051L52.6772 73.741V71.7899Z" fill="#BDC3C7"/>
<path d="M27.3073 55.237V57.1881L34.1253 61.4521V59.503L27.3073 55.237ZM27.3073 71.8114V73.7605L34.1253 78.0265V76.0755L27.3073 71.8114ZM17.5666 65.9621V67.9112L24.3846 72.1772V70.2261L17.5666 65.9621ZM17.5666 49.3867V51.3358L24.3846 55.6028V53.6527L17.5666 49.3867ZM7.82288 60.1108V62.0599L14.6438 66.3279V64.3768L7.82288 60.1108ZM7.82288 43.5354V45.4855L14.6438 49.7525V47.8024L7.82288 43.5354Z" fill="#95A5A6"/>
<path d="M39.9698 5.8815L72.3908 24.4382L74.0951 23.4627L39.9698 3.93042L5.84448 23.4627L7.54875 24.4382L39.9698 5.8815Z" fill="#AA6F57"/>
</g>
<defs>
<clipPath id="clip0_12_507">
<rect width="80" height="97.589" fill="white"/>
</clipPath>
</defs>
</svg>
