<svg width="80" height="80" viewBox="0 0 80 80" fill="none" xmlns="http://www.w3.org/2000/svg">
<rect width="80" height="80" rx="20" fill="white"/>
<path d="M50.4164 19.167H29.5831C23.8302 19.167 19.1665 23.8307 19.1665 29.5836V50.4169C19.1665 56.1699 23.8302 60.8335 29.5831 60.8335H50.4164C56.1694 60.8335 60.8331 56.1699 60.8331 50.4169V29.5836C60.8331 23.8307 56.1694 19.167 50.4164 19.167Z" stroke="#4A5261" stroke-width="3" stroke-linecap="round" stroke-linejoin="round"/>
<path d="M48.3331 38.6872C48.5902 40.421 48.294 42.1918 47.4867 43.7476C46.6795 45.3034 45.4021 46.5651 43.8365 47.3531C42.2708 48.1412 40.4965 48.4155 38.766 48.137C37.0355 47.8585 35.4368 47.0415 34.1974 45.8021C32.958 44.5627 32.1409 42.964 31.8624 41.2334C31.584 39.5029 31.8583 37.7286 32.6463 36.1629C33.4343 34.5973 34.696 33.3199 36.2518 32.5127C37.8077 31.7054 39.5784 31.4092 41.3123 31.6663C43.0808 31.9286 44.7182 32.7527 45.9824 34.017C47.2467 35.2812 48.0708 36.9186 48.3331 38.6872Z" stroke="#4A5261" stroke-width="3" stroke-linecap="round" stroke-linejoin="round"/>
<path d="M51.4583 28.542H51.4791" stroke="#4A5261" stroke-width="3" stroke-linecap="round" stroke-linejoin="round"/>
</svg>
