<svg width="80" height="80" viewBox="0 0 80 80" fill="none" xmlns="http://www.w3.org/2000/svg">
<g clip-path="url(#clip0_12_353)">
<path d="M40 0C62.0904 0 80 17.9088 80 40C80 62.0912 62.0904 80 40 80C17.9088 80 0 62.0912 0 40C0 17.9088 17.9088 0 40 0Z" fill="#D7DCDD"/>
<path d="M17.592 53.5167C16.6903 53.3312 15.8803 52.8402 15.2987 52.1265C14.7172 51.4129 14.3997 50.5205 14.4 49.5999C14.4 49.0263 14.4032 48.5015 14.408 47.9999H14.4V32.7999C14.4 32.1634 14.1471 31.5529 13.6971 31.1028C13.247 30.6528 12.6365 30.3999 12 30.3999H8.8C8.16348 30.3999 7.55303 30.6528 7.10294 31.1028C6.65286 31.5529 6.4 32.1634 6.4 32.7999V47.9999H6.392C6.3968 48.5015 6.4 49.0263 6.4 49.5999C6.40028 50.5205 6.08283 51.4129 5.50127 52.1265C4.91971 52.8402 4.10969 53.3312 3.208 53.5167C1.3264 53.8799 0 55.6311 0 57.5999V59.1999C0 60.2608 0.421427 61.2782 1.17157 62.0283C1.92172 62.7785 2.93913 63.1999 4 63.1999H16.8C17.8609 63.1999 18.8783 62.7785 19.6284 62.0283C20.3786 61.2782 20.8 60.2608 20.8 59.1999V57.5999C20.8 55.6311 19.4736 53.8799 17.592 53.5167ZM10.4 35.9999C10.1898 35.9999 9.98173 35.9584 9.78758 35.8779C9.59343 35.7975 9.41704 35.6795 9.26846 35.5309C9.11989 35.3822 9.00205 35.2058 8.92167 35.0116C8.84129 34.8174 8.79995 34.6093 8.8 34.3991C8.80005 34.1889 8.8415 33.9808 8.92198 33.7867C9.00245 33.5925 9.12038 33.4161 9.26903 33.2676C9.41768 33.119 9.59413 33.0012 9.78832 32.9208C9.98251 32.8404 10.1906 32.7991 10.4008 32.7991C10.8253 32.7992 11.2323 32.9679 11.5323 33.2681C11.8324 33.5683 12.0009 33.9755 12.0008 34.3999C12.0007 34.8244 11.832 35.2314 11.5318 35.5314C11.2316 35.8315 10.8245 36 10.4 35.9999Z" fill="#DF9274"/>
<path d="M3.19998 53.52C1.36238 53.8776 0.064776 55.5624 0.010376 57.4776C0.064776 60.2696 1.41118 62.58 3.19998 63.1184V53.52Z" fill="#C88368"/>
<path d="M0 66.3999H20.8V79.9999H0V66.3999Z" fill="#2C3E50"/>
<path d="M1.59998 79.9999H3.19998V66.3999H1.59998V79.9999ZM4.79998 79.9999H6.39998V66.3999H4.79998V79.9999ZM7.99998 79.9999H9.59998V66.3999H7.99998V79.9999ZM11.2 79.9999H12.8V66.3999H11.2V79.9999ZM14.4 79.9999H16V66.3999H14.4V79.9999ZM17.6 66.3999V79.9999H19.2V66.3999H17.6Z" fill="#283848"/>
<path d="M0 56.8H20.8V65.6H0V56.8Z" fill="#95A5A6"/>
<path d="M0 64.8001H20.8V66.4001H0V64.8001ZM0 56.8H20.8V58.4H0V56.8Z" fill="#BDC3C7"/>
<path d="M6.40002 32.7999V38.3999H14.4V32.7999C14.4 32.1634 14.1472 31.5529 13.6971 31.1028C13.247 30.6528 12.6365 30.3999 12 30.3999H8.80002C8.1635 30.3999 7.55306 30.6528 7.10297 31.1028C6.65288 31.5529 6.40002 32.1634 6.40002 32.7999ZM10.4 32.7999C10.6102 32.8 10.8183 32.8414 11.0124 32.9219C11.2066 33.0024 11.383 33.1203 11.5316 33.2689C11.6801 33.4176 11.798 33.594 11.8784 33.7882C11.9587 33.9824 12.0001 34.1905 12 34.4007C12 34.6109 11.9585 34.819 11.878 35.0131C11.7976 35.2073 11.6796 35.3837 11.531 35.5322C11.3823 35.6808 11.2059 35.7987 11.0117 35.879C10.8175 35.9594 10.6094 36.0008 10.3992 36.0007C9.97477 36.0006 9.56775 35.8319 9.26769 35.5317C8.96763 35.2315 8.79912 34.8244 8.79923 34.3999C8.79933 33.9754 8.96805 33.5684 9.26825 33.2684C9.56846 32.9683 9.97557 32.7998 10.4 32.7999Z" fill="#C0392C"/>
<path d="M0 56.8H3.2V65.6H0V56.8Z" fill="#869495"/>
<path d="M0 56.8H3.2V58.4H0V56.8ZM0 64.8001H3.2V66.4001H0V64.8001Z" fill="#AAAFB3"/>
<path d="M95.9999 35.2H93.2423C93.2423 19.5376 80.6623 6.3944 65.1999 6.3944C49.7375 6.3944 36.7583 19.5376 36.7583 35.2H34.3999C34.3999 17.996 48.2167 4 65.1999 4C82.1831 4 95.9999 17.996 95.9999 35.2Z" fill="#7F8C8D"/>
<path d="M31.2 35.2H94.4V100.8H31.2V35.2Z" fill="#2C3E50"/>
<path d="M31.2 54.3999H94.4V70.3999H31.2V54.3999Z" fill="#F1C40E"/>
<path d="M61.6 35.2H45.6V46.7999C45.6 47.9669 46.0635 49.0861 46.8887 49.9112C47.7139 50.7364 48.833 51.1999 50 51.1999C51.1669 51.1999 52.2861 50.7364 53.1112 49.9112C53.9364 49.0861 54.4 47.9669 54.4 46.7999V43.5999C54.4 41.6127 56.0128 40 58 40C59.9872 40 61.6 41.6127 61.6 43.5999V43.1999C61.6 44.0486 61.9371 44.8626 62.5372 45.4627C63.1373 46.0628 63.9513 46.3999 64.8 46.3999C65.6487 46.3999 66.4626 46.0628 67.0627 45.4627C67.6628 44.8626 68 44.0486 68 43.1999V35.2H61.6Z" fill="#253544"/>
<path d="M63.1999 35.2H47.2V45.1999C47.2 46.3669 47.6635 47.4861 48.4887 48.3112C49.3138 49.1364 50.433 49.5999 51.6 49.5999C52.7669 49.5999 53.8861 49.1364 54.7112 48.3112C55.5364 47.4861 55.9999 46.3669 55.9999 45.1999V42C56.0198 41.0583 56.4078 40.1619 57.0808 39.503C57.7537 38.8441 58.6581 38.475 59.5999 38.475C60.5418 38.475 61.4462 38.8441 62.1191 39.503C62.7921 40.1619 63.1801 41.0583 63.1999 42V41.6C63.1999 42.4486 63.5371 43.2626 64.1372 43.8627C64.7373 44.4628 65.5513 44.7999 66.3999 44.7999C67.2486 44.7999 68.0626 44.4628 68.6627 43.8627C69.2628 43.2626 69.5999 42.4486 69.5999 41.6V35.2H63.1999Z" fill="#F1C40E"/>
<path d="M31.2 35.2H39.2V89.5999H31.2V35.2Z" fill="#283848"/>
<path d="M31.2 54.3999H39.2V70.3999H31.2V54.3999Z" fill="#D8B00C"/>
</g>
<defs>
<clipPath id="clip0_12_353">
<rect width="80" height="80" fill="white"/>
</clipPath>
</defs>
</svg>
