<svg width="38" height="80" viewBox="0 0 38 80" fill="none" xmlns="http://www.w3.org/2000/svg">
<g clip-path="url(#clip0_12_432)">
<path d="M16.9954 46.8184H20.2327C20.8766 46.8184 21.4941 47.0742 21.9495 47.5295C22.4048 47.9848 22.6606 48.6024 22.6606 49.2463V77.572C22.6606 78.216 22.4048 78.8335 21.9495 79.2888C21.4941 79.7442 20.8766 80 20.2327 80H16.9954C16.3515 80 15.7339 79.7442 15.2786 79.2888C14.8233 78.8335 14.5675 78.216 14.5675 77.572V49.2463C14.5675 48.6024 14.8233 47.9848 15.2786 47.5295C15.7339 47.0742 16.3515 46.8184 16.9954 46.8184Z" fill="#DE9273"/>
<path d="M4.85584 25.0886H32.3723C35.0527 25.0886 37.2281 27.2632 37.2281 29.9445V56.6516C37.2281 59.332 35.0527 61.5074 32.3723 61.5074H4.85584C2.17461 61.5074 0 59.332 0 56.6516V29.9445C0 28.6566 0.511596 27.4215 1.42224 26.5109C2.33289 25.6002 3.56799 25.0886 4.85584 25.0886Z" fill="#F0C419"/>
<path d="M11.3303 7.28369C13.5657 7.28369 15.3769 9.09411 15.3769 11.3302V50.177C15.3769 52.4123 13.5657 54.2235 11.3303 54.2235C9.09504 54.2235 7.28381 52.4123 7.28381 50.177V11.3302C7.28381 10.257 7.71014 9.22777 8.46902 8.46889C9.22789 7.71002 10.2571 7.28369 11.3303 7.28369ZM25.8979 7.28369C28.1332 7.28369 29.9444 9.09411 29.9444 11.3302V50.177C29.9444 52.4123 28.1332 54.2235 25.8979 54.2235C23.6626 54.2235 21.8513 52.4123 21.8513 50.177V11.3302C21.8513 10.257 22.2777 9.22777 23.0365 8.46889C23.7954 7.71002 24.8247 7.28369 25.8979 7.28369Z" fill="#D1AB2B"/>
<path d="M12.1396 0H25.0885C31.7928 0 37.2281 5.43531 37.2281 12.1396V32.3723H0V12.1396C0 5.43531 5.43531 0 12.1396 0Z" fill="#E64B3C"/>
<path d="M29.9444 32.3722V11.3302C29.9444 9.09411 28.1332 7.28369 25.8979 7.28369C23.6626 7.28369 21.8513 9.09411 21.8513 11.3302V32.3722H29.9444ZM15.3769 32.3722V11.3302C15.3769 9.09411 13.5657 7.28369 11.3303 7.28369C9.09504 7.28369 7.28381 9.09411 7.28381 11.3302V32.3722H15.3769Z" fill="#C94432"/>
<path d="M14.5675 61.5073H22.6606L14.5675 69.6004V61.5073Z" fill="#C88368"/>
</g>
<defs>
<clipPath id="clip0_12_432">
<rect width="37.2281" height="80" fill="white"/>
</clipPath>
</defs>
</svg>
