<svg width="80" height="80" viewBox="0 0 80 80" fill="none" xmlns="http://www.w3.org/2000/svg">
<path fill-rule="evenodd" clip-rule="evenodd" d="M6.0952 17.3304L39.9992 40L17.3512 6.07517L6.0952 17.3304ZM73.9152 17.3456L62.6632 6.08557L40 40L0.004 32.0312L0 47.952L40 40L6.0848 62.6552L17.3368 73.9152L40 40.0008L32.0336 80.0088L47.9496 80.012L40 40.0008L62.648 73.9256L73.9048 62.6696L40 40L73.9152 17.3456ZM80 32.0488L40 40L79.9968 47.9696L80 32.0488ZM32.0504 -0.0112305L40 39.9992L47.9664 -0.00803047L32.0504 -0.0112305Z" fill="#FCF062"/>
<path fill-rule="evenodd" clip-rule="evenodd" d="M48 74.4001H32C32 68.3401 29.2104 60.3481 25.608 57.3409C23.0954 55.2261 21.0764 52.5867 19.693 49.6081C18.3095 46.6296 17.5951 43.3842 17.6 40.1001C17.6 27.6737 27.6288 17.6001 40 17.6001C52.3712 17.6001 62.4 27.6737 62.4 40.1001C62.4 47.0337 59.0752 53.0041 54.368 57.3609C50.5528 61.1761 48 68.3729 48 74.4001Z" fill="#FCF062" stroke="#F29C1F" stroke-width="4" stroke-miterlimit="10"/>
<path fill-rule="evenodd" clip-rule="evenodd" d="M42.4 76C42.1878 76 41.9843 75.9157 41.8343 75.7657C41.6843 75.6156 41.6 75.4121 41.6 75.2V48.8H38.4V75.2C38.4 75.4121 38.3157 75.6156 38.1657 75.7657C38.0157 75.9157 37.8122 76 37.6 76H36C35.7878 76 35.5843 75.9157 35.4343 75.7657C35.2843 75.6156 35.2 75.4121 35.2 75.2V48.8H33.2C30.3328 48.8 28 46.4672 28 43.6C28 40.7328 30.3328 38.4 33.2 38.4C34.4676 38.3935 35.6934 38.8532 36.6442 39.6917C37.595 40.5301 38.2045 41.6887 38.3568 42.9472C38.3854 43.0284 38.4 43.1139 38.4 43.2V45.6H41.6V43.2C41.6 43.108 41.616 43.0192 41.6448 42.9368C41.7994 41.6804 42.4097 40.5245 43.3599 39.6883C44.3101 38.8521 45.5342 38.3936 46.8 38.4C49.6672 38.4 52 40.7328 52 43.6C52 46.4672 49.6672 48.8 46.8 48.8H44.8V75.2C44.8 75.4121 44.7157 75.6156 44.5657 75.7657C44.4157 75.9157 44.2122 76 44 76H42.4ZM46.8 45.6C47.9032 45.6 48.8 44.7032 48.8 43.6C48.8 42.4968 47.9032 41.5992 46.8 41.5992C46.3212 41.6028 45.8596 41.7778 45.4987 42.0924C45.1379 42.4071 44.9016 42.8406 44.8328 43.3144L44.8 43.4528V45.6H46.8ZM33.2 41.5992C32.0976 41.5992 31.2 42.4968 31.2 43.6C31.2 44.7032 32.0976 45.6 33.2 45.6H35.2V43.4464L35.168 43.3144C35.099 42.8405 34.8626 42.407 34.5016 42.0924C34.1406 41.7777 33.6789 41.6028 33.2 41.5992Z" fill="#F29C1F"/>
<path fill-rule="evenodd" clip-rule="evenodd" d="M30.4 72.8H49.6V80H30.4V72.8ZM35.2 51.2H38.4V48.8H35.2V51.2ZM41.6 48.8V51.2H44.8V48.8H41.6Z" fill="#E57E25"/>
</svg>
