<svg width="80" height="80" viewBox="0 0 80 80" fill="none" xmlns="http://www.w3.org/2000/svg">
<g clip-path="url(#clip0_12_475)">
<path d="M35.7143 79.2858C55.4387 79.2858 71.4286 63.2959 71.4286 43.5715C71.4286 23.847 55.4387 7.85718 35.7143 7.85718C15.9898 7.85718 0 23.847 0 43.5715C0 63.2959 15.9898 79.2858 35.7143 79.2858Z" fill="#3498DA"/>
<path fill-rule="evenodd" clip-rule="evenodd" d="M11.0793 69.4172C4.25786 62.9115 0 53.7422 0 43.5729C0 23.8479 15.99 7.85718 35.715 7.85718C45.9971 7.85718 55.2571 12.2079 61.7736 19.1615L11.0793 69.4172Z" fill="#27AE60"/>
<path fill-rule="evenodd" clip-rule="evenodd" d="M60.3493 17.7258C67.1707 24.2315 71.4286 33.4008 71.4286 43.5701C71.4286 53.333 67.5115 62.1808 61.1629 68.6273C51.085 58.5494 54.6236 62.0958 35.1622 42.6958L60.3493 17.7258Z" fill="#95A5A6"/>
<path d="M62.9014 66.7171L39.6343 43.4514L62.79 20.2964C61.6748 19.0007 60.4686 17.7862 59.1807 16.6621L8.80426 67.0385C9.92862 68.3265 11.1434 69.5326 12.4393 70.6478L35.5943 47.4928L58.8607 70.7585C60.313 69.521 61.6642 68.1696 62.9014 66.7171Z" fill="#F1C40F"/>
<path opacity="0.05" fill-rule="evenodd" clip-rule="evenodd" d="M74.4907 25.93C69.8643 30.5557 62.8036 31.2336 57.445 27.9957L54.4414 30.9993C61.6014 40.7793 60.7929 54.5722 51.9557 63.4093C42.1929 73.1722 26.3636 73.1722 16.6007 63.4093C6.83785 53.6465 6.83785 37.8172 16.6007 28.0543C25.5714 19.0829 39.66 18.3622 49.4621 25.8772L52.4786 22.8607C49.5171 17.5565 50.2771 10.7329 54.7857 6.2236C60.2271 0.782888 69.0493 0.782888 74.4914 6.2236C79.9314 11.665 79.9314 20.4879 74.4907 25.93ZM71.95 8.77217C67.9079 4.72575 61.3536 4.72575 57.3114 8.77217C53.2693 12.8179 53.2693 19.3786 57.3114 23.425C61.3536 27.4707 67.9079 27.4707 71.95 23.425C75.9929 19.3786 75.9929 12.8179 71.95 8.77217Z" fill="black"/>
<path fill-rule="evenodd" clip-rule="evenodd" d="M75.9193 23.8258C71.2929 28.4515 64.2322 29.1294 58.8736 25.8915L55.87 28.8958C63.03 38.6758 62.2214 52.468 53.3843 61.3058C43.6214 71.0687 27.7922 71.0687 18.0293 61.3058C8.26644 51.543 8.26644 35.7137 18.0293 25.9508C27 16.9794 41.0886 16.2587 50.8907 23.7737L53.9072 20.758C50.9457 15.4537 51.7057 8.62939 56.2143 4.12082C61.6557 -1.3199 70.4779 -1.3199 75.92 4.12082C81.36 9.56153 81.36 18.3844 75.9193 23.8258ZM73.3786 6.66868C69.3364 2.62225 62.7822 2.62225 58.74 6.66868C54.6979 10.7144 54.6979 17.2751 58.74 21.3215C62.7822 25.3673 69.3364 25.3673 73.3786 21.3215C77.4214 17.2751 77.4214 10.7144 73.3786 6.66868Z" fill="#E74C3C"/>
<path d="M35.7143 62.8571C46.3655 62.8571 55 54.2226 55 43.5714C55 32.9202 46.3655 24.2856 35.7143 24.2856C25.0631 24.2856 16.4286 32.9202 16.4286 43.5714C16.4286 54.2226 25.0631 62.8571 35.7143 62.8571Z" fill="white"/>
<path d="M36.0714 33.0358C37.0576 33.0358 37.8571 32.2363 37.8571 31.2501C37.8571 30.2638 37.0576 29.4644 36.0714 29.4644C35.0852 29.4644 34.2857 30.2638 34.2857 31.2501C34.2857 32.2363 35.0852 33.0358 36.0714 33.0358Z" fill="#ECF0F1"/>
<path d="M36.0714 58.0358C37.0576 58.0358 37.8571 57.2363 37.8571 56.2501C37.8571 55.2638 37.0576 54.4644 36.0714 54.4644C35.0852 54.4644 34.2857 55.2638 34.2857 56.2501C34.2857 57.2363 35.0852 58.0358 36.0714 58.0358Z" fill="#ECF0F1"/>
<path d="M23.2143 45.1786C24.2005 45.1786 25 44.3791 25 43.3929C25 42.4067 24.2005 41.6072 23.2143 41.6072C22.2281 41.6072 21.4286 42.4067 21.4286 43.3929C21.4286 44.3791 22.2281 45.1786 23.2143 45.1786Z" fill="#ECF0F1"/>
<path d="M48.9286 45.1786C49.9148 45.1786 50.7143 44.3791 50.7143 43.3929C50.7143 42.4067 49.9148 41.6072 48.9286 41.6072C47.9424 41.6072 47.1429 42.4067 47.1429 43.3929C47.1429 44.3791 47.9424 45.1786 48.9286 45.1786Z" fill="#ECF0F1"/>
<path opacity="0.15" fill-rule="evenodd" clip-rule="evenodd" d="M35.7143 24.2856C30.025 24.2856 24.9129 26.7499 21.3829 30.6685C24.9202 27.4734 29.5191 25.7076 34.2857 25.7142C44.9372 25.7142 53.5714 34.3485 53.5714 44.9999C53.5779 49.7666 51.8121 54.3654 48.6172 57.9028C52.5357 54.3728 55 49.2606 55 43.5714C55 32.9199 46.3657 24.2856 35.7143 24.2856Z" fill="black"/>
<path d="M46.5293 31.8093L38.0786 46.2115L23.7943 54.5443L46.5293 31.8093Z" fill="#34495E"/>
<path d="M23.7943 54.5443L32.245 40.1422L46.5293 31.8086L23.7943 54.5443Z" fill="#306DAB"/>
<path fill-rule="evenodd" clip-rule="evenodd" d="M56.2907 17.5435L62.02 23.2728C63.4143 24.6685 63.0222 26.3099 61.7672 27.5656C60.5122 28.8213 58.8686 29.2135 57.4743 27.8185L51.745 22.0892C50.35 20.6949 50.7422 19.0513 51.9979 17.7963C53.2536 16.5406 54.8957 16.1485 56.2907 17.5435Z" fill="#C0392B"/>
</g>
<defs>
<clipPath id="clip0_12_475">
<rect width="80" height="79.2857" fill="white"/>
</clipPath>
</defs>
</svg>
