<svg width="80" height="80" viewBox="0 0 80 80" fill="none" xmlns="http://www.w3.org/2000/svg">
<rect width="80" height="80" rx="20" fill="white"/>
<path d="M21.6933 26.7683C21.7247 26.6467 21.7563 26.5284 21.7878 26.4134C23.7557 28.604 26.1203 30.4151 28.7654 31.7465C32.2577 33.5043 36.1306 34.3711 40.039 34.2698C40.8521 34.2487 41.5002 33.5836 41.5002 32.7703V30.687L41.5 30.6669C41.4785 29.0623 41.9503 27.4899 42.8516 26.1622C43.7529 24.8345 45.0402 23.8157 46.5394 23.2435C48.0386 22.6713 49.6774 22.5733 51.2341 22.9628C52.7908 23.3523 54.1903 24.2105 55.2433 25.4213C55.6305 25.8665 56.2427 26.0434 56.8077 25.8733C57.8829 25.5495 58.9326 25.1518 59.9495 24.6837C59.2931 25.8314 58.4806 26.89 57.5302 27.8273C57.1737 28.1789 57.0162 28.6851 57.1102 29.1769C57.2015 29.655 57.2484 30.1405 57.2502 30.6272C57.2493 42.08 51.8007 50.1477 44.2433 54.1701C38.117 57.4309 30.5058 58.0854 23.0885 55.6037C26.441 54.9344 29.6471 53.6001 32.5093 51.6572C32.9599 51.3513 33.2093 50.8252 33.1609 50.2827C33.1124 49.7402 32.7737 49.2666 32.276 49.0454C27.8284 47.0687 25.0762 44.5187 23.3963 41.8662C21.7103 39.2041 21.0469 36.3472 20.9257 33.6814C20.8042 31.009 21.2299 28.5599 21.6933 26.7683Z" stroke="#4A5261" stroke-width="3" stroke-linecap="round" stroke-linejoin="round"/>
</svg>
