<svg width="80" height="80" viewBox="0 0 80 80" fill="none" xmlns="http://www.w3.org/2000/svg">
<rect width="80" height="80" rx="20" fill="white"/>
<path d="M61.9585 28.3747C61.711 27.3859 61.207 26.48 60.4973 25.7484C59.7877 25.0168 58.8975 24.4855 57.9168 24.208C54.3335 23.333 40.0001 23.333 40.0001 23.333C40.0001 23.333 25.6668 23.333 22.0835 24.2913C21.1027 24.5688 20.2126 25.1002 19.5029 25.8318C18.7933 26.5634 18.2893 27.4693 18.0418 28.458C17.386 32.0946 17.0652 35.7837 17.0835 39.4788C17.0601 43.2019 17.3809 46.9191 18.0418 50.583C18.3146 51.541 18.8299 52.4125 19.5379 53.1132C20.2459 53.8139 21.1227 54.3201 22.0835 54.583C25.6668 55.5413 40.0001 55.5413 40.0001 55.5413C40.0001 55.5413 54.3335 55.5413 57.9168 54.583C58.8975 54.3055 59.7877 53.7742 60.4973 53.0426C61.207 52.311 61.711 51.4051 61.9585 50.4163C62.6092 46.8072 62.93 43.1462 62.9168 39.4788C62.9402 35.7558 62.6194 32.0386 61.9585 28.3747V28.3747Z" stroke="#4A5261" stroke-width="3" stroke-linecap="round" stroke-linejoin="round"/>
<path d="M35.3125 46.291L47.2917 39.4785L35.3125 32.666V46.291Z" stroke="#4A5261" stroke-width="3" stroke-linecap="round" stroke-linejoin="round"/>
</svg>
